<!DOCTYPE svg PUBLIC "-//W3C//DTD SVG 1.1//EN" "http://www.w3.org/Graphics/SVG/1.1/DTD/svg11.dtd">
<!-- Uploaded to: SVG Repo, www.svgrepo.com, Transformed by: SVG Repo Mixer Tools -->
<svg width="64px" height="64px" viewBox="0 0 24 24" id="receipt-remove" xmlns="http://www.w3.org/2000/svg" class="icon multi-color" fill="#000000">
<g id="SVGRepo_bgCarrier" stroke-width="0"/>
<g id="SVGRepo_tracerCarrier" stroke-linecap="round" stroke-linejoin="round"/>
<g id="SVGRepo_iconCarrier">
<title style="stroke-width: 2;">receipt remove</title>
<path id="tertiary-fill" d="M5,13H21a0,0,0,0,1,0,0v5a3,3,0,0,1-3,3H5a0,0,0,0,1,0,0V13A0,0,0,0,1,5,13Z" style="fill: #ff5e14; stroke-width: 2;"/>
<path id="secondary-fill" d="M18.5,21H5.5A2.5,2.5,0,0,1,3,18.5V16H16v2.5A2.5,2.5,0,0,0,18.5,21Z" style="fill: #ff5e14; stroke-width: 2;"/>
<path id="primary-stroke" d="M21,4V18.5a2.5,2.5,0,0,1-5,0V16H5V4A1,1,0,0,1,6,3H20A1,1,0,0,1,21,4ZM16,18.5V16H3v2.5A2.5,2.5,0,0,0,5.5,21h13A2.5,2.5,0,0,1,16,18.5Zm-.5-9h-5" style="fill: none; stroke: #000000; stroke-linecap: round; stroke-linejoin: round; stroke-width: 2;"/>
</g>
</svg>